<?xml version="1.0" encoding="UTF-8" standalone="no"?>
<!-- Created with Inkscape (http://www.inkscape.org/) -->

<svg
   width="819.01819"
   height="819.01819"
   id="svg2"
   sodipodi:version="0.32"
   inkscape:version="1.2.2 (732a01da63, 2022-12-09)"
   version="1.0"
   sodipodi:docname="dead-end.svg"
   xmlns:inkscape="http://www.inkscape.org/namespaces/inkscape"
   xmlns:sodipodi="http://sodipodi.sourceforge.net/DTD/sodipodi-0.dtd"
   xmlns="http://www.w3.org/2000/svg"
   xmlns:svg="http://www.w3.org/2000/svg"
   xmlns:rdf="http://www.w3.org/1999/02/22-rdf-syntax-ns#"
   xmlns:cc="http://creativecommons.org/ns#"
   xmlns:dc="http://purl.org/dc/elements/1.1/">
  <defs
     id="defs4" />
  <sodipodi:namedview
     id="base"
     pagecolor="#ffffff"
     bordercolor="#666666"
     borderopacity="1.0"
     gridtolerance="10000"
     guidetolerance="10"
     objecttolerance="10"
     inkscape:pageopacity="0.0"
     inkscape:pageshadow="2"
     inkscape:zoom="0.94430669"
     inkscape:cx="372.23076"
     inkscape:cy="410.35397"
     inkscape:document-units="px"
     inkscape:current-layer="layer1"
     width="600px"
     height="600px"
     units="px"
     inkscape:window-width="1280"
     inkscape:window-height="968"
     inkscape:window-x="0"
     inkscape:window-y="0"
     showgrid="false"
     fit-margin-top="0"
     fit-margin-left="0"
     fit-margin-right="0"
     fit-margin-bottom="0"
     inkscape:window-maximized="0"
     inkscape:showpageshadow="0"
     inkscape:pagecheckerboard="1"
     inkscape:deskcolor="#d1d1d1" />
  <metadata
     id="metadata7">
    <rdf:RDF>
      <cc:Work
         rdf:about="">
        <dc:format>image/svg+xml</dc:format>
        <dc:type
           rdf:resource="http://purl.org/dc/dcmitype/StillImage" />
      </cc:Work>
    </rdf:RDF>
  </metadata>
  <g
     inkscape:label="Layer 1"
     inkscape:groupmode="layer"
     id="layer1"
     transform="translate(0.73495513,0.73495773)">
    <path
       transform="matrix(0.707107,-0.707107,0.707107,0.707107,0,0)"
       style="color:#000000;fill:#ffffff;fill-opacity:1;fill-rule:nonzero;stroke:#000000;stroke-width:1.49999952;stroke-linecap:butt;stroke-linejoin:miter;stroke-miterlimit:4;stroke-opacity:1;stroke-dasharray:none;stroke-dashoffset:0;marker:none;visibility:visible;display:inline;overflow:visible"
       d="m -262.50039,278.08163 525.00016,0 c 20.77501,0 37.50002,16.72501 37.50002,37.50002 l 0,525.00016 c 0,20.775 -16.72501,37.50001 -37.50002,37.50001 l -525.00016,0 c -20.775,0 -37.50001,-16.72501 -37.50001,-37.50001 l 0,-525.00016 c 0,-20.77501 16.72501,-37.50002 37.50001,-37.50002 z"
       id="rect2777"
       inkscape:connector-curvature="0" />
    <path
       transform="matrix(0.707107,-0.707107,0.707107,0.707107,0,0)"
       style="color:#000000;fill:#000000;fill-opacity:1;fill-rule:nonzero;stroke:none;stroke-width:0.8735441;marker:none;visibility:visible;display:inline;overflow:visible"
       d="m -262.51244,287.45663 525.00016,0 c 15.58126,0 28.12501,12.54376 28.12501,28.12501 l 0,525.00017 c 0,15.58125 -12.54375,28.12501 -28.12501,28.12501 l -525.00016,0 c -15.58126,0 -28.12501,-12.54376 -28.12501,-28.12501 l 0,-525.00017 c 0,-15.58125 12.54375,-28.12501 28.12501,-28.12501 z"
       id="rect4551"
       inkscape:connector-curvature="0" />
    <path
       transform="matrix(0.707107,-0.707107,0.707107,0.707107,0,0)"
       style="color:#000000;fill:#ffffff;fill-opacity:1;fill-rule:nonzero;stroke:none;stroke-width:0.8735441;marker:none;visibility:visible;display:inline;overflow:visible"
       d="m -262.53253,303.08163 525.00018,0 c 6.925,0 12.5,5.57501 12.5,12.50001 l 0,525.00017 c 0,6.92501 -5.575,12.50001 -12.5,12.50001 l -525.00018,0 c -6.925,0 -12.5,-5.575 -12.5,-12.50001 l 0,-525.00017 c 0,-6.925 5.575,-12.50001 12.5,-12.50001 z"
       id="rect5438"
       inkscape:connector-curvature="0" />
    <path
       transform="scale(1.012833,0.98733)"
       style="font-size:188.95762634px;font-style:normal;font-variant:normal;font-weight:normal;font-stretch:normal;text-align:center;line-height:125%;writing-mode:lr-tb;text-anchor:middle;fill:#000000;stroke:none;font-family:Roadgeek 2005 Series D"
       d="m 286.11885,325.20079 c -1e-4,12.72486 -1.92131,23.90519 -5.76364,33.54102 -3.84253,9.63589 -9.35436,17.22559 -16.53553,22.76914 -2.3951,2.26817 -5.1986,3.96833 -8.41048,5.10049 -3.21202,1.13217 -6.45569,1.82511 -9.73102,2.07884 l -7.17933,0 -38.54924,0 0,-126.60415 40.81549,0 c 3.15231,1.3e-4 5.89333,0.0953 8.22307,0.28544 2.32961,0.19042 4.4392,0.53738 6.32877,1.04086 1.88942,0.50374 3.58959,1.19668 5.10049,2.07884 1.51076,0.8824 3.14845,1.95209 4.91308,3.20907 6.67756,5.7974 11.81169,13.51397 15.4024,23.14973 3.59053,9.63596 5.38584,20.75285 5.38594,33.35072 l 0,0 z m -20.40774,0 c -9e-5,-8.56514 -0.91408,-16.18657 -2.74199,-22.86429 -1.82807,-6.67754 -4.31632,-11.65405 -7.46477,-14.92954 -1.63776,-1.51073 -3.52726,-2.76975 -5.6685,-3.77708 -2.14137,-1.00711 -4.53447,-1.51072 -7.17933,-1.51083 l -22.67399,0 0,86.16348 20.02716,0 c 3.27533,2e-5 6.01538,-0.37769 8.22018,-1.13312 2.20467,-0.7554 4.18932,-2.01538 5.95394,-3.77996 3.77893,-3.77897 6.64489,-8.97557 8.5979,-15.58981 1.95285,-6.61417 2.92931,-14.14044 2.9294,-22.57885 l 0,0 z m 47.90832,63.48949 0,-126.60415 74.64195,0 0,20.03292 -54.60903,0 0,30.98933 36.84812,0 0,20.40775 -36.84812,0 0,34.7664 58.5764,0 0,20.40775 -78.60932,0 z m 174.65664,0 -12.473,-35.52182 -39.48919,0 -12.47301,35.52182 -21.35345,0 43.65262,-126.60415 19.83686,0 43.65263,126.60415 -21.35346,0 z m -31.93504,-91.45715 -13.03812,35.52758 25.32083,0 -12.28271,-35.52758 z m 158.60839,27.96766 c -1e-4,12.72486 -1.92132,23.90519 -5.76365,33.54102 -3.84252,9.63589 -9.35435,17.22559 -16.53552,22.76914 -2.39511,2.26817 -5.1986,3.96833 -8.41048,5.10049 -3.21203,1.13217 -6.4557,1.82511 -9.73102,2.07884 l -7.17933,0 -38.54925,0 0,-126.60415 40.8155,0 c 3.15231,1.3e-4 5.89333,0.0953 8.22307,0.28544 2.32961,0.19042 4.4392,0.53738 6.32876,1.04086 1.88943,0.50374 3.58959,1.19668 5.1005,2.07884 1.51075,0.8824 3.14844,1.95209 4.91308,3.20907 6.67755,5.7974 11.81168,13.51397 15.4024,23.14973 3.59053,9.63596 5.38584,20.75285 5.38594,33.35072 l 0,0 z m -20.40775,0 c -8e-5,-8.56514 -0.91407,-16.18657 -2.74198,-22.86429 -1.82807,-6.67754 -4.31632,-11.65405 -7.46477,-14.92954 -1.63777,-1.51073 -3.52727,-2.76975 -5.6685,-3.77708 -2.14137,-1.00711 -4.53448,-1.51072 -7.17933,-1.51083 l -22.67399,0 0,86.16348 20.02715,0 c 3.27533,2e-5 6.01539,-0.37769 8.22019,-1.13312 2.20467,-0.7554 4.18931,-2.01538 5.95394,-3.77996 3.77893,-3.77897 6.64489,-8.97557 8.5979,-15.58981 1.95285,-6.61417 2.92931,-14.14044 2.92939,-22.57885 l 0,0 z"
       id="text6442"
       inkscape:connector-curvature="0" />
    <path
       transform="scale(0.997098,1.00291)"
       style="font-size:186.02218628px;font-style:normal;font-variant:normal;font-weight:normal;font-stretch:normal;text-align:center;line-height:125%;writing-mode:lr-tb;text-anchor:middle;fill:#000000;stroke:none;font-family:Roadgeek 2005 Series D"
       d="m 268.92079,582.07153 0,-124.63736 73.4824,0 0,19.72171 -53.76069,0 0,30.50791 36.27569,0 0,20.09072 -36.27569,0 0,34.22631 57.66643,0 0,20.09071 -77.38814,0 z m 165.8009,0 -47.61823,-84.45593 0,84.45593 -19.72171,0 0,-124.63736 19.72171,0 45.38719,79.61918 0,-79.61918 19.72171,0 0,124.63736 -17.49067,0 z m 131.93792,-62.50318 c -1e-4,12.52718 -1.89147,23.53382 -5.67411,33.01996 -3.78283,9.4862 -9.20904,16.958 -16.27865,22.41542 -2.3579,2.23294 -5.11784,3.90669 -8.27982,5.02126 -3.16213,1.11458 -6.35541,1.79676 -9.57985,2.04654 l -7.0678,0 -37.95039,0 0,-124.63736 40.18143,0 c 3.10334,1.3e-4 5.80178,0.0938 8.09533,0.28101 2.29342,0.18746 4.37023,0.52903 6.23045,1.02469 1.86007,0.49591 3.53382,1.17809 5.02126,2.04654 1.48728,0.86869 3.09953,1.92176 4.83675,3.15922 6.57382,5.70733 11.62819,13.30403 15.16313,22.7901 3.53475,9.48626 5.30217,20.43046 5.30227,32.83262 l 0,0 z m -20.09072,0 c -8e-5,-8.43209 -0.89987,-15.93511 -2.69939,-22.50909 -1.79966,-6.57381 -4.24926,-11.47301 -7.3488,-14.69762 -1.61232,-1.48726 -3.47247,-2.72672 -5.58044,-3.7184 -2.1081,-0.99147 -4.46403,-1.48725 -7.0678,-1.48736 l -22.32175,0 0,84.82494 19.71603,0 c 3.22445,2e-5 5.92194,-0.37182 8.09249,-1.11552 2.17042,-0.74366 4.12423,-1.98407 5.86145,-3.72124 3.72022,-3.72026 6.54166,-8.83613 8.46432,-15.34762 1.92252,-6.51142 2.88381,-13.92077 2.88389,-22.22809 l 0,0 z"
       id="text6448"
       inkscape:connector-curvature="0" />
    <path
       style="fill:#ffff00;stroke-width:8.47182"
       d="M 215.77009,603.34938 C 40.645672,428.22497 26.47445,413.79241 26.47445,410.5628 c 0,-1.92002 0.684394,-4.77776 1.520876,-6.35054 2.448363,-4.6035 374.561264,-375.910978 378.010524,-377.192349 2.12772,-0.790429 4.07035,-0.806184 6.35387,-0.05153 4.78921,1.582729 378.38171,375.320509 379.53156,379.679169 0.46096,1.74731 0.6657,4.36828 0.45499,5.82438 -0.26987,1.86481 -55.69252,58.00002 -187.48129,189.89169 C 501.96099,705.34795 416.48,790.29122 414.90722,791.12645 c -1.57279,0.83522 -4.43052,1.51858 -6.35055,1.51858 -3.2296,0 -17.66216,-14.17123 -192.78658,-189.29565 z M 346.2858,574.49556 v -10.58978 h -28.5924 -28.59241 v -16.94365 -16.94365 h 18.00263 18.00262 V 519.95819 509.8979 h -18.00262 -18.00263 v -14.82569 -14.82569 h 27.00394 27.00394 v -10.58978 -10.58978 h -37.59372 -37.59372 v 63.00919 63.00919 h 39.18219 39.18218 z m 41.55246,-30.16345 0.27717,-40.75323 22.76803,40.73548 22.76803,40.73548 9.26605,0.0178 9.26606,0.0178 v -63.00919 -63.00919 h -10.57657 -10.57657 l -0.27796,38.15952 -0.27795,38.15945 -21.64497,-38.15953 -21.64497,-38.15952 H 376.7955 366.40638 v 63.00919 63.00919 h 10.57735 10.57734 z m 151.01142,37.09175 c 11.33394,-6.27807 20.43669,-19.31051 24.70394,-35.36871 2.58892,-9.74249 3.12975,-33.78498 1.00391,-44.62907 -4.06347,-20.72803 -16.31951,-37.93521 -29.3584,-41.21844 -2.59902,-0.65444 -15.16404,-1.14068 -29.47659,-1.14068 h -24.94653 v 63.09067 63.09066 l 26.2097,-0.34622 26.20971,-0.34622 z M 261.72553,382.13309 c 6.58861,-3.04571 16.51501,-13.18681 20.78286,-21.23237 6.09033,-11.48124 7.97173,-20.80385 7.97173,-39.5009 0,-18.37117 -1.74881,-27.32756 -7.59865,-38.91605 -4.15145,-8.22397 -12.68429,-17.47994 -18.96694,-20.57429 -4.78546,-2.35696 -6.17955,-2.47417 -33.32207,-2.80147 l -28.32766,-0.34159 v 63.15112 63.15112 l 27.26868,-0.32982 c 25.27402,-0.30571 27.62882,-0.49631 32.19205,-2.60575 z m 136.45019,-7.78437 v -10.58978 h -29.65138 -29.65138 v -16.41416 -16.41416 h 19.0616 19.0616 v -10.58978 -10.58978 h -19.0616 -19.0616 v -14.82569 -14.82569 h 28.06291 28.06292 V 269.5099 258.92012 h -38.6527 -38.65269 v 63.00919 63.00919 h 40.24116 40.24116 z m 38.63673,-6.88336 6.24364,-17.47313 19.65419,0.0151 19.65419,0.015 6.19913,17.45805 6.19914,17.45805 h 11.48171 11.48171 l -1.94957,-5.55963 c -1.07227,-3.05781 -10.39425,-29.38665 -20.71554,-58.50855 -10.32128,-29.12189 -19.47593,-54.99031 -20.34368,-57.48537 l -1.57771,-4.53647 -10.59293,0.30056 -10.59293,0.30056 -22.10859,62.4797 c -12.15971,34.36383 -22.11535,62.59884 -22.12363,62.74444 -0.008,0.14561 5.12896,0.26475 11.41608,0.26475 h 11.43115 z m 158.86267,14.14487 c 6.57205,-3.47386 16.35268,-13.59264 19.89475,-20.58257 6.19561,-12.22644 7.63876,-19.61414 7.63768,-39.09835 -7.6e-4,-13.86459 -0.42922,-19.58481 -1.86401,-24.88598 -4.41774,-16.32242 -14.26221,-30.3848 -24.60944,-35.15349 -5.02851,-2.31747 -6.69342,-2.45747 -33.09307,-2.78293 l -27.79817,-0.3427 v 63.15222 63.15223 l 27.26869,-0.32982 c 27.14413,-0.32833 27.29287,-0.34261 32.56357,-3.12861 z"
       id="path413"
       transform="translate(-0.73495513,-0.73495773)" />
    <path
       style="fill:#ffff00;stroke-width:8.47182"
       d=""
       id="path415"
       transform="translate(-0.73495513,-0.73495773)" />
    <path
       style="fill:#ffff00;stroke-width:8.47182"
       d="m 224.50333,321.92931 v -41.82963 h 13.28982 c 14.83505,0 17.14284,0.69831 22.51015,6.81134 5.15265,5.86855 7.82591,15.84091 8.39366,31.31187 0.70208,19.13124 -3.05108,32.92645 -11.00182,40.43853 -4.54747,4.29659 -7.86,5.09752 -21.0825,5.09752 h -12.10931 z"
       id="path417"
       transform="translate(-0.73495513,-0.73495773)" />
    <path
       style="fill:#ffff00;stroke-width:8.47182"
       d="m 451.12462,328.09679 c 0,-1.24763 10.71216,-29.43002 11.49329,-30.23745 0.41101,-0.42485 2.98528,5.58195 5.72059,13.34843 2.73531,7.76648 5.27411,14.90478 5.64177,15.86289 0.59565,1.55225 -0.61274,1.74201 -11.09359,1.74201 -6.46913,0 -11.76206,-0.32215 -11.76206,-0.71588 z"
       id="path419"
       transform="translate(-0.73495513,-0.73495773)" />
    <path
       style="fill:#ffff00;stroke-width:8.47182"
       d="m 557.02242,322.03321 v -41.93353 h 13.27941 c 11.29049,0 13.91572,0.32462 17.5278,2.16736 9.0883,4.63651 14.11393,18.5239 14.16154,39.13278 0.0158,6.85116 -0.60496,14.72599 -1.41918,18.00263 -2.04018,8.21026 -7.29563,17.70491 -11.6314,21.01363 -3.49153,2.66446 -4.43383,2.83288 -17.80242,3.18202 l -14.11575,0.36864 z"
       id="path421"
       transform="translate(-0.73495513,-0.73495773)" />
    <path
       style="fill:#ffff00;stroke-width:8.47182"
       d="m 500.89659,522.1825 v -41.93598 h 13.28981 c 14.60822,0 17.33455,0.78143 21.97754,6.29931 11.41678,13.56807 11.86258,53.36289 0.76936,68.67664 -5.37124,7.41478 -7.19485,8.10614 -22.48625,8.52491 l -13.55046,0.37109 z"
       id="path423"
       transform="translate(-0.73495513,-0.73495773)" />
    <path
       style="fill:#ffff00;stroke-width:8.47182"
       d="m 398.49325,815.09435 c -3.02877,-1.08215 -7.31764,-3.22808 -9.5308,-4.76872 C 386.74928,808.78498 300.0674,722.56909 196.33603,618.73477 -14.675514,407.51373 2.7564091,426.31919 2.6844195,409.82448 2.6123979,393.32246 -15.868134,413.2495 197.82943,199.40503 374.59023,22.522698 389.54065,7.8295904 395.4652,5.1708145 406.61242,0.16823838 419.78011,1.5734481 430.22144,8.8798786 432.6904,10.607562 519.3459,96.761476 622.78922,200.33302 776.9485,354.68339 811.31606,389.59984 813.3525,393.93981 c 3.65305,7.78517 4.07474,20.12838 0.97681,28.59241 -2.26628,6.19187 -7.17557,11.20789 -192.56068,196.74727 -171.08118,171.22356 -190.90055,190.72321 -196.84426,193.66895 -8.54416,4.23453 -18.35587,5.03114 -26.43112,2.14591 z m 19.8756,-7.17409 c 5.63954,-1.63583 9.45976,-5.37266 195.68179,-191.41027 154.42406,-154.27113 190.40272,-190.7317 192.45891,-195.03675 3.29189,-6.89228 3.44575,-16.96159 0.36407,-23.827 C 803.75167,390.69108 429.72914,16.523834 422.05955,12.683268 415.21982,9.2582533 404.20352,9.0649432 397.11675,12.245581 393.37045,13.926969 352.00462,54.742718 203.687,203.1031 69.77756,337.05118 14.309694,393.20489 12.566027,396.58726 c -3.4348532,6.66293 -3.5038662,18.63393 -0.146522,25.41547 1.737223,3.50903 52.410782,54.76898 192.204505,194.42871 177.50671,177.33656 190.18942,189.7726 195.14018,191.34493 6.83448,2.17058 11.49343,2.20661 18.60466,0.14389 z"
       id="path425"
       transform="translate(-0.73495513,-0.73495773)" />
  </g>
</svg>
